inDegrees=no
num_controls=7
num_derivatives=13
num_iterations=144
num_multipliers=7
num_parameters=0
num_slacks=7
num_states=26
objective=5.813595
objective_accelerations=0.676386
objective_balance=0.019690
objective_effort=0.485833
objective_height=4.538097
objective_ligament=0.093589
solver_duration=1300.095634
status=Solve_Succeeded
success=true
DataType=double
version=3
OpenSimVersion=4.4-2022-07-23-0e9fedc
endheader
time	/jointset/ground_pelvis/pelvis_tilt/value	/jointset/ground_pelvis/pelvis_tx/value	/jointset/ground_pelvis/pelvis_ty/value	/jointset/hip_r/hip_flexion_r/value	/jointset/hip_r/hip_adduction_r/value	/jointset/hip_r/hip_rotation_r/value	/jointset/back/lumbar_extension/value	/jointset/patellofemoral_r/patellar_flexion_r/value	/jointset/knee_r/knee_flexion_r/value	/jointset/knee_r/knee_adduction_r/value	/jointset/knee_r/knee_rotation_r/value	/jointset/ankle_r/ankle_angle_r/value	/jointset/subtalar_r/subtalar_angle_r/value	/jointset/ground_pelvis/pelvis_tilt/speed	/jointset/ground_pelvis/pelvis_tx/speed	/jointset/ground_pelvis/pelvis_ty/speed	/jointset/hip_r/hip_flexion_r/speed	/jointset/hip_r/hip_adduction_r/speed	/jointset/hip_r/hip_rotation_r/speed	/jointset/back/lumbar_extension/speed	/jointset/patellofemoral_r/patellar_flexion_r/speed	/jointset/knee_r/knee_flexion_r/speed	/jointset/knee_r/knee_adduction_r/speed	/jointset/knee_r/knee_rotation_r/speed	/jointset/ankle_r/ankle_angle_r/speed	/jointset/subtalar_r/subtalar_angle_r/speed	/forceset/tau_hip_flexion_r	/forceset/tau_hip_adduction_r	/forceset/tau_hip_rotation_r	/forceset/tau_knee_flexion_r	/forceset/tau_ankle_angle_r	/forceset/tau_subtalar_angle_r	/forceset/tau_lumbar_extension	lambda_cid13_p0	lambda_cid14_p0	lambda_cid14_p1	lambda_cid14_p2	lambda_cid14_p3	lambda_cid14_p4	lambda_cid14_p5	/jointset/ground_pelvis/pelvis_tilt/accel	/jointset/ground_pelvis/pelvis_tx/accel	/jointset/ground_pelvis/pelvis_ty/accel	/jointset/hip_r/hip_flexion_r/accel	/jointset/hip_r/hip_adduction_r/accel	/jointset/hip_r/hip_rotation_r/accel	/jointset/back/lumbar_extension/accel	/jointset/patellofemoral_r/patellar_flexion_r/accel	/jointset/knee_r/knee_flexion_r/accel	/jointset/knee_r/knee_adduction_r/accel	/jointset/knee_r/knee_rotation_r/accel	/jointset/ankle_r/ankle_angle_r/accel	/jointset/subtalar_r/subtalar_angle_r/accel	gamma_cid13_p0	gamma_cid14_p0	gamma_cid14_p1	gamma_cid14_p2	gamma_cid14_p3	gamma_cid14_p4	gamma_cid14_p5
1	-0.260677886627572	-0.01934411093217048	0.6075601922410221	1.522446332909478	-0.2406924289293747	-0.07013695423988485	-0.7853905697275024	1.57780350053662	1.577803500536651	-0.1745324856400069	0.1745328919408881	0.4362337058431395	0.1708534163512598	0.06858127079725179	0.004529607107226778	0.01453527698704983	-0.09668911290252528	-0.001095953782402545	-0.002851859660849165	-0.0002513054518234312	-0.01448836897605286	-0.01448836897605261	0.002210722381745215	-0.0002659045064640611	0.01377872077773745	0.004983726973359682	-0.3522663876615569	0.01894734479237525	0.007101842996436832	-0.4721150307943099	-0.01758792485198744	0.009013228537378072	0.3688988653801688	-0.04022264509299456	-57.40427360710007	-9.17867289117814	5.360012778322366	7.948256384260827	-777.3007274605711	73.69440710181938	1.259764097431092	0.1310459133281062	1.965086974280804	-5.775723013908603	0.2633562633602663	-0.909859066890379	-0.04279052144973559	-5.277621085099963	-5.27762108509998	0.4134208980891604	-0.05573260151886768	-0.8941492765125737	0.06640176079496088	1.414282700303347e-09	4.271099625365663e-10	6.400282856215425e-09	9.080480034759501e-09	1.596133516123463e-09	-5.956557532667034e-09	1.290505162930185e-08
1.01	-0.2599296314618482	-0.01929213611936703	0.6078037618136101	1.521191071889911	-0.2406902194399373	-0.07020805489640841	-0.7853940405566109	1.577394990987816	1.577394990987823	-0.174486785252802	0.174527109663739	0.4363269322138418	0.1709065773870807	0.08107818622892854	0.005881404685488248	0.03418658937033199	-0.1544048448617271	0.001528562312578263	-0.0113106018350029	-0.0003964064227853206	-0.06722497984265598	-0.06722497984264984	0.007004927651846369	-0.0008774398889903325	0.004881637714456796	0.0056368474254092	-0.3522479181414417	0.01888723372518449	0.007212487716227188	-0.4726807429998146	-0.01700216171055195	0.008970490329534625	0.369221837883027	-0.04021989450317119	-57.23921036130872	-9.180407367447977	5.374081633490943	7.624902098376696	-777.7288517876456	73.78085367930025	1.245920352443228	0.1396549906703758	1.966343311496541	-5.775760188083018	0.2606098560440984	-0.8052306411801877	0.006598205998759	-5.273397804115755	-5.273397804115048	0.5237566754354285	-0.06188951602905025	-0.885225814721202	0.06303013207089561	4.258778091711198e-09	2.320840962717448e-09	2.865341778271761e-08	2.767474499652363e-08	4.605159487151369e-09	-1.409071661869346e-08	5.441157591866825e-08
1.02	-0.2590561541245266	-0.0192261616686631	0.6082440824982601	1.519357401170529	-0.2406620426748683	-0.07036201274432528	-0.7853975687762402	1.576458771987011	1.576458771986992	-0.174390875545783	0.1745156069309757	0.4363316401541379	0.1709659222163512	0.09362570511690627	0.007329534687323942	0.05388549939945307	-0.2123710528672205	0.004097501346647458	-0.01942329794928124	-0.0002627837569693034	-0.1200302593762744	-0.1200302593762625	0.01225258628053734	-0.001409995647891189	-0.003924965088249499	0.006220485663891958	-0.3522294486212438	0.018827122657999	0.007323132436272727	-0.4732464552052886	-0.01641639856912253	0.008927752121692768	0.3695448103859665	-0.04022491494604574	-57.08147133908173	-9.181089954493254	5.385316094535835	7.305147285711205	-778.2700571013249	73.89075801554242	1.269884788691659	0.1503123980424799	1.974606503448499	-5.825818223166511	0.2522408511780982	-0.8406498549160129	0.01295420591078708	-5.2913548185032	-5.291354818503236	0.5041115698062768	-0.03993667679383584	-0.8760532243986201	0.05250531808146694	1.051227915087052e-08	1.316376715031123e-08	6.388106389556235e-08	7.169345056979329e-08	-4.130677179359155e-09	-2.110551634490754e-08	1.398956542527811e-07
1.03	-0.2580573856473505	-0.01914529294871975	0.6088814877110565	1.51694361493688	-0.2406084370966459	-0.07059533463323475	-0.7853972859362115	1.574994192192775	1.57499419219278	-0.1742402044177374	0.1744992236154069	0.4362483933286929	0.17103061092252	0.1060927205279789	0.008853562683552391	0.07358938699016174	-0.2703487878580971	0.006617713433650335	-0.02718651583798089	0.0004740776164221693	-0.1728943659321939	-0.1728943659321809	0.01795027102317388	-0.001852595504811894	-0.01274262915610559	0.006694835520207403	-0.3528171713230333	0.01898813927967851	0.007424371426833834	-0.4727975870977345	-0.01718781097896761	0.008968822195042565	0.3703783294614077	-0.04024682951212751	-57.35596135857557	-9.196243647057221	5.370517725087275	7.419167812436307	-778.7376796735995	73.87472022626436	1.229824446612181	0.1548483569539241	1.96735079716969	-5.778135627835312	0.2510411169018203	-0.7359657406353268	0.1272609813114151	-5.285241941402129	-5.285241941402164	0.6128889651388948	-0.04427856047200358	-0.8873570641843668	0.0415662024203827	1.680056598214977e-08	2.409801165614396e-08	9.924110297969637e-08	1.159715892105274e-07	-1.298635938298749e-08	-2.81088940368378e-08	2.258284831383713e-07
